%TF.GenerationSoftware,KiCad,Pcbnew,7.99.0-999-ge1db4e0694*%
%TF.CreationDate,2023-07-03T11:35:08-04:00*%
%TF.ProjectId,aek,61656b2e-6b69-4636-9164-5f7063625858,rev?*%
%TF.SameCoordinates,Original*%
%TF.FileFunction,Legend,Top*%
%TF.FilePolarity,Positive*%
%FSLAX46Y46*%
G04 Gerber Fmt 4.6, Leading zero omitted, Abs format (unit mm)*
G04 Created by KiCad (PCBNEW 7.99.0-999-ge1db4e0694) date 2023-07-03 11:35:08*
%MOMM*%
%LPD*%
G01*
G04 APERTURE LIST*
%ADD10C,0.150000*%
%ADD11C,0.120000*%
%ADD12R,1.500000X1.000000*%
%ADD13O,1.070000X1.800000*%
%ADD14R,1.070000X1.800000*%
%ADD15C,9.000000*%
%ADD16C,1.750000*%
%ADD17C,3.987800*%
%ADD18C,3.048000*%
G04 APERTURE END LIST*
D10*
%TO.C,LED1*%
X383784952Y-24978619D02*
X383308762Y-24978619D01*
X383308762Y-24978619D02*
X383308762Y-23978619D01*
X384118286Y-24454809D02*
X384451619Y-24454809D01*
X384594476Y-24978619D02*
X384118286Y-24978619D01*
X384118286Y-24978619D02*
X384118286Y-23978619D01*
X384118286Y-23978619D02*
X384594476Y-23978619D01*
X385023048Y-24978619D02*
X385023048Y-23978619D01*
X385023048Y-23978619D02*
X385261143Y-23978619D01*
X385261143Y-23978619D02*
X385404000Y-24026238D01*
X385404000Y-24026238D02*
X385499238Y-24121476D01*
X385499238Y-24121476D02*
X385546857Y-24216714D01*
X385546857Y-24216714D02*
X385594476Y-24407190D01*
X385594476Y-24407190D02*
X385594476Y-24550047D01*
X385594476Y-24550047D02*
X385546857Y-24740523D01*
X385546857Y-24740523D02*
X385499238Y-24835761D01*
X385499238Y-24835761D02*
X385404000Y-24931000D01*
X385404000Y-24931000D02*
X385261143Y-24978619D01*
X385261143Y-24978619D02*
X385023048Y-24978619D01*
X386546857Y-24978619D02*
X385975429Y-24978619D01*
X386261143Y-24978619D02*
X386261143Y-23978619D01*
X386261143Y-23978619D02*
X386165905Y-24121476D01*
X386165905Y-24121476D02*
X386070667Y-24216714D01*
X386070667Y-24216714D02*
X385975429Y-24264333D01*
X381039714Y-26878619D02*
X380468286Y-26878619D01*
X380754000Y-26878619D02*
X380754000Y-25878619D01*
X380754000Y-25878619D02*
X380658762Y-26021476D01*
X380658762Y-26021476D02*
X380563524Y-26116714D01*
X380563524Y-26116714D02*
X380468286Y-26164333D01*
%TO.C,LED2*%
X403784952Y-24978619D02*
X403308762Y-24978619D01*
X403308762Y-24978619D02*
X403308762Y-23978619D01*
X404118286Y-24454809D02*
X404451619Y-24454809D01*
X404594476Y-24978619D02*
X404118286Y-24978619D01*
X404118286Y-24978619D02*
X404118286Y-23978619D01*
X404118286Y-23978619D02*
X404594476Y-23978619D01*
X405023048Y-24978619D02*
X405023048Y-23978619D01*
X405023048Y-23978619D02*
X405261143Y-23978619D01*
X405261143Y-23978619D02*
X405404000Y-24026238D01*
X405404000Y-24026238D02*
X405499238Y-24121476D01*
X405499238Y-24121476D02*
X405546857Y-24216714D01*
X405546857Y-24216714D02*
X405594476Y-24407190D01*
X405594476Y-24407190D02*
X405594476Y-24550047D01*
X405594476Y-24550047D02*
X405546857Y-24740523D01*
X405546857Y-24740523D02*
X405499238Y-24835761D01*
X405499238Y-24835761D02*
X405404000Y-24931000D01*
X405404000Y-24931000D02*
X405261143Y-24978619D01*
X405261143Y-24978619D02*
X405023048Y-24978619D01*
X405975429Y-24073857D02*
X406023048Y-24026238D01*
X406023048Y-24026238D02*
X406118286Y-23978619D01*
X406118286Y-23978619D02*
X406356381Y-23978619D01*
X406356381Y-23978619D02*
X406451619Y-24026238D01*
X406451619Y-24026238D02*
X406499238Y-24073857D01*
X406499238Y-24073857D02*
X406546857Y-24169095D01*
X406546857Y-24169095D02*
X406546857Y-24264333D01*
X406546857Y-24264333D02*
X406499238Y-24407190D01*
X406499238Y-24407190D02*
X405927810Y-24978619D01*
X405927810Y-24978619D02*
X406546857Y-24978619D01*
X401039714Y-26878619D02*
X400468286Y-26878619D01*
X400754000Y-26878619D02*
X400754000Y-25878619D01*
X400754000Y-25878619D02*
X400658762Y-26021476D01*
X400658762Y-26021476D02*
X400563524Y-26116714D01*
X400563524Y-26116714D02*
X400468286Y-26164333D01*
%TO.C,LED3*%
X423784952Y-24978619D02*
X423308762Y-24978619D01*
X423308762Y-24978619D02*
X423308762Y-23978619D01*
X424118286Y-24454809D02*
X424451619Y-24454809D01*
X424594476Y-24978619D02*
X424118286Y-24978619D01*
X424118286Y-24978619D02*
X424118286Y-23978619D01*
X424118286Y-23978619D02*
X424594476Y-23978619D01*
X425023048Y-24978619D02*
X425023048Y-23978619D01*
X425023048Y-23978619D02*
X425261143Y-23978619D01*
X425261143Y-23978619D02*
X425404000Y-24026238D01*
X425404000Y-24026238D02*
X425499238Y-24121476D01*
X425499238Y-24121476D02*
X425546857Y-24216714D01*
X425546857Y-24216714D02*
X425594476Y-24407190D01*
X425594476Y-24407190D02*
X425594476Y-24550047D01*
X425594476Y-24550047D02*
X425546857Y-24740523D01*
X425546857Y-24740523D02*
X425499238Y-24835761D01*
X425499238Y-24835761D02*
X425404000Y-24931000D01*
X425404000Y-24931000D02*
X425261143Y-24978619D01*
X425261143Y-24978619D02*
X425023048Y-24978619D01*
X425927810Y-23978619D02*
X426546857Y-23978619D01*
X426546857Y-23978619D02*
X426213524Y-24359571D01*
X426213524Y-24359571D02*
X426356381Y-24359571D01*
X426356381Y-24359571D02*
X426451619Y-24407190D01*
X426451619Y-24407190D02*
X426499238Y-24454809D01*
X426499238Y-24454809D02*
X426546857Y-24550047D01*
X426546857Y-24550047D02*
X426546857Y-24788142D01*
X426546857Y-24788142D02*
X426499238Y-24883380D01*
X426499238Y-24883380D02*
X426451619Y-24931000D01*
X426451619Y-24931000D02*
X426356381Y-24978619D01*
X426356381Y-24978619D02*
X426070667Y-24978619D01*
X426070667Y-24978619D02*
X425975429Y-24931000D01*
X425975429Y-24931000D02*
X425927810Y-24883380D01*
X421039714Y-26878619D02*
X420468286Y-26878619D01*
X420754000Y-26878619D02*
X420754000Y-25878619D01*
X420754000Y-25878619D02*
X420658762Y-26021476D01*
X420658762Y-26021476D02*
X420563524Y-26116714D01*
X420563524Y-26116714D02*
X420468286Y-26164333D01*
%TO.C,H2*%
X451936095Y-49496619D02*
X451936095Y-48496619D01*
X451936095Y-48972809D02*
X452507523Y-48972809D01*
X452507523Y-49496619D02*
X452507523Y-48496619D01*
X452936095Y-48591857D02*
X452983714Y-48544238D01*
X452983714Y-48544238D02*
X453078952Y-48496619D01*
X453078952Y-48496619D02*
X453317047Y-48496619D01*
X453317047Y-48496619D02*
X453412285Y-48544238D01*
X453412285Y-48544238D02*
X453459904Y-48591857D01*
X453459904Y-48591857D02*
X453507523Y-48687095D01*
X453507523Y-48687095D02*
X453507523Y-48782333D01*
X453507523Y-48782333D02*
X453459904Y-48925190D01*
X453459904Y-48925190D02*
X452888476Y-49496619D01*
X452888476Y-49496619D02*
X453507523Y-49496619D01*
%TO.C,H1*%
X23038095Y-49496619D02*
X23038095Y-48496619D01*
X23038095Y-48972809D02*
X23609523Y-48972809D01*
X23609523Y-49496619D02*
X23609523Y-48496619D01*
X24609523Y-49496619D02*
X24038095Y-49496619D01*
X24323809Y-49496619D02*
X24323809Y-48496619D01*
X24323809Y-48496619D02*
X24228571Y-48639476D01*
X24228571Y-48639476D02*
X24133333Y-48734714D01*
X24133333Y-48734714D02*
X24038095Y-48782333D01*
%TO.C,SW1*%
X434403332Y-58073000D02*
X434260475Y-58120619D01*
X434260475Y-58120619D02*
X434022380Y-58120619D01*
X434022380Y-58120619D02*
X433927142Y-58073000D01*
X433927142Y-58073000D02*
X433879523Y-58025380D01*
X433879523Y-58025380D02*
X433831904Y-57930142D01*
X433831904Y-57930142D02*
X433831904Y-57834904D01*
X433831904Y-57834904D02*
X433879523Y-57739666D01*
X433879523Y-57739666D02*
X433927142Y-57692047D01*
X433927142Y-57692047D02*
X434022380Y-57644428D01*
X434022380Y-57644428D02*
X434212856Y-57596809D01*
X434212856Y-57596809D02*
X434308094Y-57549190D01*
X434308094Y-57549190D02*
X434355713Y-57501571D01*
X434355713Y-57501571D02*
X434403332Y-57406333D01*
X434403332Y-57406333D02*
X434403332Y-57311095D01*
X434403332Y-57311095D02*
X434355713Y-57215857D01*
X434355713Y-57215857D02*
X434308094Y-57168238D01*
X434308094Y-57168238D02*
X434212856Y-57120619D01*
X434212856Y-57120619D02*
X433974761Y-57120619D01*
X433974761Y-57120619D02*
X433831904Y-57168238D01*
X433498570Y-57120619D02*
X433260475Y-58120619D01*
X433260475Y-58120619D02*
X433069999Y-57406333D01*
X433069999Y-57406333D02*
X432879523Y-58120619D01*
X432879523Y-58120619D02*
X432641428Y-57120619D01*
X431736666Y-58120619D02*
X432308094Y-58120619D01*
X432022380Y-58120619D02*
X432022380Y-57120619D01*
X432022380Y-57120619D02*
X432117618Y-57263476D01*
X432117618Y-57263476D02*
X432212856Y-57358714D01*
X432212856Y-57358714D02*
X432308094Y-57406333D01*
%TO.C,C1*%
X433302666Y-32723380D02*
X433350285Y-32771000D01*
X433350285Y-32771000D02*
X433493142Y-32818619D01*
X433493142Y-32818619D02*
X433588380Y-32818619D01*
X433588380Y-32818619D02*
X433731237Y-32771000D01*
X433731237Y-32771000D02*
X433826475Y-32675761D01*
X433826475Y-32675761D02*
X433874094Y-32580523D01*
X433874094Y-32580523D02*
X433921713Y-32390047D01*
X433921713Y-32390047D02*
X433921713Y-32247190D01*
X433921713Y-32247190D02*
X433874094Y-32056714D01*
X433874094Y-32056714D02*
X433826475Y-31961476D01*
X433826475Y-31961476D02*
X433731237Y-31866238D01*
X433731237Y-31866238D02*
X433588380Y-31818619D01*
X433588380Y-31818619D02*
X433493142Y-31818619D01*
X433493142Y-31818619D02*
X433350285Y-31866238D01*
X433350285Y-31866238D02*
X433302666Y-31913857D01*
X432350285Y-32818619D02*
X432921713Y-32818619D01*
X432635999Y-32818619D02*
X432635999Y-31818619D01*
X432635999Y-31818619D02*
X432731237Y-31961476D01*
X432731237Y-31961476D02*
X432826475Y-32056714D01*
X432826475Y-32056714D02*
X432921713Y-32104333D01*
%TO.C,C5*%
X415755380Y-47331333D02*
X415803000Y-47283714D01*
X415803000Y-47283714D02*
X415850619Y-47140857D01*
X415850619Y-47140857D02*
X415850619Y-47045619D01*
X415850619Y-47045619D02*
X415803000Y-46902762D01*
X415803000Y-46902762D02*
X415707761Y-46807524D01*
X415707761Y-46807524D02*
X415612523Y-46759905D01*
X415612523Y-46759905D02*
X415422047Y-46712286D01*
X415422047Y-46712286D02*
X415279190Y-46712286D01*
X415279190Y-46712286D02*
X415088714Y-46759905D01*
X415088714Y-46759905D02*
X414993476Y-46807524D01*
X414993476Y-46807524D02*
X414898238Y-46902762D01*
X414898238Y-46902762D02*
X414850619Y-47045619D01*
X414850619Y-47045619D02*
X414850619Y-47140857D01*
X414850619Y-47140857D02*
X414898238Y-47283714D01*
X414898238Y-47283714D02*
X414945857Y-47331333D01*
X414850619Y-48236095D02*
X414850619Y-47759905D01*
X414850619Y-47759905D02*
X415326809Y-47712286D01*
X415326809Y-47712286D02*
X415279190Y-47759905D01*
X415279190Y-47759905D02*
X415231571Y-47855143D01*
X415231571Y-47855143D02*
X415231571Y-48093238D01*
X415231571Y-48093238D02*
X415279190Y-48188476D01*
X415279190Y-48188476D02*
X415326809Y-48236095D01*
X415326809Y-48236095D02*
X415422047Y-48283714D01*
X415422047Y-48283714D02*
X415660142Y-48283714D01*
X415660142Y-48283714D02*
X415755380Y-48236095D01*
X415755380Y-48236095D02*
X415803000Y-48188476D01*
X415803000Y-48188476D02*
X415850619Y-48093238D01*
X415850619Y-48093238D02*
X415850619Y-47855143D01*
X415850619Y-47855143D02*
X415803000Y-47759905D01*
X415803000Y-47759905D02*
X415755380Y-47712286D01*
%TO.C,C6*%
X437046666Y-44465380D02*
X437094285Y-44513000D01*
X437094285Y-44513000D02*
X437237142Y-44560619D01*
X437237142Y-44560619D02*
X437332380Y-44560619D01*
X437332380Y-44560619D02*
X437475237Y-44513000D01*
X437475237Y-44513000D02*
X437570475Y-44417761D01*
X437570475Y-44417761D02*
X437618094Y-44322523D01*
X437618094Y-44322523D02*
X437665713Y-44132047D01*
X437665713Y-44132047D02*
X437665713Y-43989190D01*
X437665713Y-43989190D02*
X437618094Y-43798714D01*
X437618094Y-43798714D02*
X437570475Y-43703476D01*
X437570475Y-43703476D02*
X437475237Y-43608238D01*
X437475237Y-43608238D02*
X437332380Y-43560619D01*
X437332380Y-43560619D02*
X437237142Y-43560619D01*
X437237142Y-43560619D02*
X437094285Y-43608238D01*
X437094285Y-43608238D02*
X437046666Y-43655857D01*
X436189523Y-43560619D02*
X436379999Y-43560619D01*
X436379999Y-43560619D02*
X436475237Y-43608238D01*
X436475237Y-43608238D02*
X436522856Y-43655857D01*
X436522856Y-43655857D02*
X436618094Y-43798714D01*
X436618094Y-43798714D02*
X436665713Y-43989190D01*
X436665713Y-43989190D02*
X436665713Y-44370142D01*
X436665713Y-44370142D02*
X436618094Y-44465380D01*
X436618094Y-44465380D02*
X436570475Y-44513000D01*
X436570475Y-44513000D02*
X436475237Y-44560619D01*
X436475237Y-44560619D02*
X436284761Y-44560619D01*
X436284761Y-44560619D02*
X436189523Y-44513000D01*
X436189523Y-44513000D02*
X436141904Y-44465380D01*
X436141904Y-44465380D02*
X436094285Y-44370142D01*
X436094285Y-44370142D02*
X436094285Y-44132047D01*
X436094285Y-44132047D02*
X436141904Y-44036809D01*
X436141904Y-44036809D02*
X436189523Y-43989190D01*
X436189523Y-43989190D02*
X436284761Y-43941571D01*
X436284761Y-43941571D02*
X436475237Y-43941571D01*
X436475237Y-43941571D02*
X436570475Y-43989190D01*
X436570475Y-43989190D02*
X436618094Y-44036809D01*
X436618094Y-44036809D02*
X436665713Y-44132047D01*
%TO.C,C7*%
X435524380Y-51767833D02*
X435572000Y-51720214D01*
X435572000Y-51720214D02*
X435619619Y-51577357D01*
X435619619Y-51577357D02*
X435619619Y-51482119D01*
X435619619Y-51482119D02*
X435572000Y-51339262D01*
X435572000Y-51339262D02*
X435476761Y-51244024D01*
X435476761Y-51244024D02*
X435381523Y-51196405D01*
X435381523Y-51196405D02*
X435191047Y-51148786D01*
X435191047Y-51148786D02*
X435048190Y-51148786D01*
X435048190Y-51148786D02*
X434857714Y-51196405D01*
X434857714Y-51196405D02*
X434762476Y-51244024D01*
X434762476Y-51244024D02*
X434667238Y-51339262D01*
X434667238Y-51339262D02*
X434619619Y-51482119D01*
X434619619Y-51482119D02*
X434619619Y-51577357D01*
X434619619Y-51577357D02*
X434667238Y-51720214D01*
X434667238Y-51720214D02*
X434714857Y-51767833D01*
X434619619Y-52101167D02*
X434619619Y-52767833D01*
X434619619Y-52767833D02*
X435619619Y-52339262D01*
%TO.C,J1*%
X448809083Y-21993369D02*
X448809083Y-22707654D01*
X448809083Y-22707654D02*
X448856702Y-22850511D01*
X448856702Y-22850511D02*
X448951940Y-22945750D01*
X448951940Y-22945750D02*
X449094797Y-22993369D01*
X449094797Y-22993369D02*
X449190035Y-22993369D01*
X447809083Y-22993369D02*
X448380511Y-22993369D01*
X448094797Y-22993369D02*
X448094797Y-21993369D01*
X448094797Y-21993369D02*
X448190035Y-22136226D01*
X448190035Y-22136226D02*
X448285273Y-22231464D01*
X448285273Y-22231464D02*
X448380511Y-22279083D01*
%TO.C,R3*%
X437722619Y-54847833D02*
X437246428Y-54514500D01*
X437722619Y-54276405D02*
X436722619Y-54276405D01*
X436722619Y-54276405D02*
X436722619Y-54657357D01*
X436722619Y-54657357D02*
X436770238Y-54752595D01*
X436770238Y-54752595D02*
X436817857Y-54800214D01*
X436817857Y-54800214D02*
X436913095Y-54847833D01*
X436913095Y-54847833D02*
X437055952Y-54847833D01*
X437055952Y-54847833D02*
X437151190Y-54800214D01*
X437151190Y-54800214D02*
X437198809Y-54752595D01*
X437198809Y-54752595D02*
X437246428Y-54657357D01*
X437246428Y-54657357D02*
X437246428Y-54276405D01*
X436722619Y-55181167D02*
X436722619Y-55800214D01*
X436722619Y-55800214D02*
X437103571Y-55466881D01*
X437103571Y-55466881D02*
X437103571Y-55609738D01*
X437103571Y-55609738D02*
X437151190Y-55704976D01*
X437151190Y-55704976D02*
X437198809Y-55752595D01*
X437198809Y-55752595D02*
X437294047Y-55800214D01*
X437294047Y-55800214D02*
X437532142Y-55800214D01*
X437532142Y-55800214D02*
X437627380Y-55752595D01*
X437627380Y-55752595D02*
X437675000Y-55704976D01*
X437675000Y-55704976D02*
X437722619Y-55609738D01*
X437722619Y-55609738D02*
X437722619Y-55324024D01*
X437722619Y-55324024D02*
X437675000Y-55228786D01*
X437675000Y-55228786D02*
X437627380Y-55181167D01*
%TO.C,R4*%
X417338166Y-34626619D02*
X417671499Y-34150428D01*
X417909594Y-34626619D02*
X417909594Y-33626619D01*
X417909594Y-33626619D02*
X417528642Y-33626619D01*
X417528642Y-33626619D02*
X417433404Y-33674238D01*
X417433404Y-33674238D02*
X417385785Y-33721857D01*
X417385785Y-33721857D02*
X417338166Y-33817095D01*
X417338166Y-33817095D02*
X417338166Y-33959952D01*
X417338166Y-33959952D02*
X417385785Y-34055190D01*
X417385785Y-34055190D02*
X417433404Y-34102809D01*
X417433404Y-34102809D02*
X417528642Y-34150428D01*
X417528642Y-34150428D02*
X417909594Y-34150428D01*
X416481023Y-33959952D02*
X416481023Y-34626619D01*
X416719118Y-33579000D02*
X416957213Y-34293285D01*
X416957213Y-34293285D02*
X416338166Y-34293285D01*
%TO.C,Y1*%
X426815690Y-54214678D02*
X426815690Y-54690869D01*
X427149023Y-53690869D02*
X426815690Y-54214678D01*
X426815690Y-54214678D02*
X426482357Y-53690869D01*
X425625214Y-54690869D02*
X426196642Y-54690869D01*
X425910928Y-54690869D02*
X425910928Y-53690869D01*
X425910928Y-53690869D02*
X426006166Y-53833726D01*
X426006166Y-53833726D02*
X426101404Y-53928964D01*
X426101404Y-53928964D02*
X426196642Y-53976583D01*
%TO.C,C3*%
X421597380Y-54123333D02*
X421645000Y-54075714D01*
X421645000Y-54075714D02*
X421692619Y-53932857D01*
X421692619Y-53932857D02*
X421692619Y-53837619D01*
X421692619Y-53837619D02*
X421645000Y-53694762D01*
X421645000Y-53694762D02*
X421549761Y-53599524D01*
X421549761Y-53599524D02*
X421454523Y-53551905D01*
X421454523Y-53551905D02*
X421264047Y-53504286D01*
X421264047Y-53504286D02*
X421121190Y-53504286D01*
X421121190Y-53504286D02*
X420930714Y-53551905D01*
X420930714Y-53551905D02*
X420835476Y-53599524D01*
X420835476Y-53599524D02*
X420740238Y-53694762D01*
X420740238Y-53694762D02*
X420692619Y-53837619D01*
X420692619Y-53837619D02*
X420692619Y-53932857D01*
X420692619Y-53932857D02*
X420740238Y-54075714D01*
X420740238Y-54075714D02*
X420787857Y-54123333D01*
X420692619Y-54456667D02*
X420692619Y-55075714D01*
X420692619Y-55075714D02*
X421073571Y-54742381D01*
X421073571Y-54742381D02*
X421073571Y-54885238D01*
X421073571Y-54885238D02*
X421121190Y-54980476D01*
X421121190Y-54980476D02*
X421168809Y-55028095D01*
X421168809Y-55028095D02*
X421264047Y-55075714D01*
X421264047Y-55075714D02*
X421502142Y-55075714D01*
X421502142Y-55075714D02*
X421597380Y-55028095D01*
X421597380Y-55028095D02*
X421645000Y-54980476D01*
X421645000Y-54980476D02*
X421692619Y-54885238D01*
X421692619Y-54885238D02*
X421692619Y-54599524D01*
X421692619Y-54599524D02*
X421645000Y-54504286D01*
X421645000Y-54504286D02*
X421597380Y-54456667D01*
%TO.C,C4*%
X432661880Y-51767833D02*
X432709500Y-51720214D01*
X432709500Y-51720214D02*
X432757119Y-51577357D01*
X432757119Y-51577357D02*
X432757119Y-51482119D01*
X432757119Y-51482119D02*
X432709500Y-51339262D01*
X432709500Y-51339262D02*
X432614261Y-51244024D01*
X432614261Y-51244024D02*
X432519023Y-51196405D01*
X432519023Y-51196405D02*
X432328547Y-51148786D01*
X432328547Y-51148786D02*
X432185690Y-51148786D01*
X432185690Y-51148786D02*
X431995214Y-51196405D01*
X431995214Y-51196405D02*
X431899976Y-51244024D01*
X431899976Y-51244024D02*
X431804738Y-51339262D01*
X431804738Y-51339262D02*
X431757119Y-51482119D01*
X431757119Y-51482119D02*
X431757119Y-51577357D01*
X431757119Y-51577357D02*
X431804738Y-51720214D01*
X431804738Y-51720214D02*
X431852357Y-51767833D01*
X432090452Y-52624976D02*
X432757119Y-52624976D01*
X431709500Y-52386881D02*
X432423785Y-52148786D01*
X432423785Y-52148786D02*
X432423785Y-52767833D01*
D11*
%TO.C,LED1*%
X381254000Y-25266000D02*
X388554000Y-25266000D01*
X381254000Y-30766000D02*
X388554000Y-30766000D01*
X388554000Y-30766000D02*
X388554000Y-29616000D01*
%TO.C,LED2*%
X401254000Y-25266000D02*
X408554000Y-25266000D01*
X401254000Y-30766000D02*
X408554000Y-30766000D01*
X408554000Y-30766000D02*
X408554000Y-29616000D01*
%TO.C,LED3*%
X421254000Y-25266000D02*
X428554000Y-25266000D01*
X421254000Y-30766000D02*
X428554000Y-30766000D01*
X428554000Y-30766000D02*
X428554000Y-29616000D01*
%TD*%
%LPC*%
D12*
%TO.C,LED1*%
X382454000Y-26416000D03*
D13*
X385539000Y-28016000D03*
D12*
X382454000Y-29616000D03*
D13*
X382999000Y-28016000D03*
D14*
X384269000Y-28016000D03*
D12*
X387354000Y-29616000D03*
D13*
X386809000Y-28016000D03*
D12*
X387354000Y-26416000D03*
%TD*%
%TO.C,LED2*%
X402454000Y-26416000D03*
D13*
X405539000Y-28016000D03*
D12*
X402454000Y-29616000D03*
D13*
X402999000Y-28016000D03*
D14*
X404269000Y-28016000D03*
D12*
X407354000Y-29616000D03*
D13*
X406809000Y-28016000D03*
D12*
X407354000Y-26416000D03*
%TD*%
%TO.C,LED3*%
X422454000Y-26416000D03*
D13*
X425539000Y-28016000D03*
D12*
X422454000Y-29616000D03*
D13*
X422999000Y-28016000D03*
D14*
X424269000Y-28016000D03*
D12*
X427354000Y-29616000D03*
D13*
X426809000Y-28016000D03*
D12*
X427354000Y-26416000D03*
%TD*%
D15*
%TO.C,H2*%
X452698000Y-52734000D03*
%TD*%
D16*
%TO.C,SW_0*%
X214757000Y-72707500D03*
D17*
X219837000Y-72707500D03*
D16*
X224917000Y-72707500D03*
%TD*%
%TO.C,SW_1*%
X43307000Y-72707500D03*
D17*
X48387000Y-72707500D03*
D16*
X53467000Y-72707500D03*
%TD*%
%TO.C,SW_2*%
X62357000Y-72707500D03*
D17*
X67437000Y-72707500D03*
D16*
X72517000Y-72707500D03*
%TD*%
%TO.C,SW_3*%
X81407000Y-72707500D03*
D17*
X86487000Y-72707500D03*
D16*
X91567000Y-72707500D03*
%TD*%
%TO.C,SW_6*%
X138557000Y-72707500D03*
D17*
X143637000Y-72707500D03*
D16*
X148717000Y-72707500D03*
%TD*%
%TO.C,SW_7*%
X157607000Y-72707500D03*
D17*
X162687000Y-72707500D03*
D16*
X167767000Y-72707500D03*
%TD*%
%TO.C,SW_8*%
X176657000Y-72707500D03*
D17*
X181737000Y-72707500D03*
D16*
X186817000Y-72707500D03*
%TD*%
%TO.C,SW_9*%
X195707000Y-72707500D03*
D17*
X200787000Y-72707500D03*
D16*
X205867000Y-72707500D03*
%TD*%
%TO.C,SW_A1*%
X57594500Y-110807500D03*
D17*
X62674500Y-110807500D03*
D16*
X67754500Y-110807500D03*
%TD*%
%TO.C,SW_APOS1*%
X248094500Y-110807500D03*
D17*
X253174500Y-110807500D03*
D16*
X258254500Y-110807500D03*
%TD*%
%TO.C,SW_B1*%
X143319500Y-129857500D03*
D17*
X148399500Y-129857500D03*
D16*
X153479500Y-129857500D03*
%TD*%
D18*
%TO.C,SW_BACKSP1*%
X274574000Y-65722500D03*
D17*
X274574000Y-80962500D03*
D16*
X281432000Y-72707500D03*
D17*
X286512000Y-72707500D03*
D16*
X291592000Y-72707500D03*
D18*
X298450000Y-65722500D03*
D17*
X298450000Y-80962500D03*
%TD*%
D16*
%TO.C,SW_BKSLS1*%
X286194500Y-91757500D03*
D17*
X291274500Y-91757500D03*
D16*
X296354500Y-91757500D03*
%TD*%
%TO.C,SW_C1*%
X105219500Y-129857500D03*
D17*
X110299500Y-129857500D03*
D16*
X115379500Y-129857500D03*
%TD*%
%TO.C,SW_CAP1*%
X31400750Y-110807500D03*
D17*
X36480750Y-110807500D03*
D16*
X41560750Y-110807500D03*
%TD*%
%TO.C,SW_COLON1*%
X229044500Y-110807500D03*
D17*
X234124500Y-110807500D03*
D16*
X239204500Y-110807500D03*
%TD*%
%TO.C,SW_COMMA1*%
X200469500Y-129857500D03*
D17*
X205549500Y-129857500D03*
D16*
X210629500Y-129857500D03*
%TD*%
%TO.C,SW_D1*%
X95694500Y-110807500D03*
D17*
X100774500Y-110807500D03*
D16*
X105854500Y-110807500D03*
%TD*%
%TO.C,SW_DEL1*%
X318579500Y-91757500D03*
D17*
X323659500Y-91757500D03*
D16*
X328739500Y-91757500D03*
%TD*%
%TO.C,SW_DOWN1*%
X337629500Y-148907500D03*
D17*
X342709500Y-148907500D03*
D16*
X347789500Y-148907500D03*
%TD*%
%TO.C,SW_E1*%
X90932000Y-91757500D03*
D17*
X96012000Y-91757500D03*
D16*
X101092000Y-91757500D03*
%TD*%
%TO.C,SW_END1*%
X337629500Y-91757500D03*
D17*
X342709500Y-91757500D03*
D16*
X347789500Y-91757500D03*
%TD*%
D18*
%TO.C,SW_ENTER1*%
X272192750Y-103822500D03*
D17*
X272192750Y-119062500D03*
D16*
X279050750Y-110807500D03*
D17*
X284130750Y-110807500D03*
D16*
X289210750Y-110807500D03*
D18*
X296068750Y-103822500D03*
D17*
X296068750Y-119062500D03*
%TD*%
D16*
%TO.C,SW_EQ1*%
X252857000Y-72707500D03*
D17*
X257937000Y-72707500D03*
D16*
X263017000Y-72707500D03*
%TD*%
%TO.C,SW_ESC1*%
X29337000Y-39687500D03*
D17*
X29337000Y-34607500D03*
D16*
X29337000Y-29527500D03*
%TD*%
%TO.C,SW_F1*%
X67437000Y-39687500D03*
D17*
X67437000Y-34607500D03*
D16*
X67437000Y-29527500D03*
%TD*%
%TO.C,SW_F2*%
X86487000Y-39687500D03*
D17*
X86487000Y-34607500D03*
D16*
X86487000Y-29527500D03*
%TD*%
%TO.C,SW_F3*%
X105537000Y-39687500D03*
D17*
X105537000Y-34607500D03*
D16*
X105537000Y-29527500D03*
%TD*%
%TO.C,SW_F4*%
X124587000Y-39687500D03*
D17*
X124587000Y-34607500D03*
D16*
X124587000Y-29527500D03*
%TD*%
%TO.C,SW_F5*%
X153162000Y-39687500D03*
D17*
X153162000Y-34607500D03*
D16*
X153162000Y-29527500D03*
%TD*%
%TO.C,SW_F6*%
X172212000Y-39687500D03*
D17*
X172212000Y-34607500D03*
D16*
X172212000Y-29527500D03*
%TD*%
%TO.C,SW_F7*%
X191262000Y-39687500D03*
D17*
X191262000Y-34607500D03*
D16*
X191262000Y-29527500D03*
%TD*%
%TO.C,SW_F8*%
X210312000Y-39687500D03*
D17*
X210312000Y-34607500D03*
D16*
X210312000Y-29527500D03*
%TD*%
%TO.C,SW_F9*%
X238887000Y-39687500D03*
D17*
X238887000Y-34607500D03*
D16*
X238887000Y-29527500D03*
%TD*%
%TO.C,SW_F10*%
X257937000Y-39687500D03*
D17*
X257937000Y-34607500D03*
D16*
X257937000Y-29527500D03*
%TD*%
%TO.C,SW_F11*%
X276987000Y-39687500D03*
D17*
X276987000Y-34607500D03*
D16*
X276987000Y-29527500D03*
%TD*%
%TO.C,SW_F12*%
X296037000Y-39687500D03*
D17*
X296037000Y-34607500D03*
D16*
X296037000Y-29527500D03*
%TD*%
%TO.C,SW_F13*%
X114744500Y-110807500D03*
D17*
X119824500Y-110807500D03*
D16*
X124904500Y-110807500D03*
%TD*%
%TO.C,SW_G1*%
X133794500Y-110807500D03*
D17*
X138874500Y-110807500D03*
D16*
X143954500Y-110807500D03*
%TD*%
%TO.C,SW_H1*%
X152844500Y-110807500D03*
D17*
X157924500Y-110807500D03*
D16*
X163004500Y-110807500D03*
%TD*%
%TO.C,SW_HOME1*%
X337629500Y-72707500D03*
D17*
X342709500Y-72707500D03*
D16*
X347789500Y-72707500D03*
%TD*%
%TO.C,SW_I1*%
X186182000Y-91757500D03*
D17*
X191262000Y-91757500D03*
D16*
X196342000Y-91757500D03*
%TD*%
%TO.C,SW_INS1*%
X318579500Y-72707500D03*
D17*
X323659500Y-72707500D03*
D16*
X328739500Y-72707500D03*
%TD*%
%TO.C,SW_J1*%
X171894500Y-110807500D03*
D17*
X176974500Y-110807500D03*
D16*
X182054500Y-110807500D03*
%TD*%
%TO.C,SW_K1*%
X190944500Y-110807500D03*
D17*
X196024500Y-110807500D03*
D16*
X201104500Y-110807500D03*
%TD*%
D17*
%TO.C,SW_KP0*%
X386969000Y-140652500D03*
D18*
X386969000Y-155892500D03*
D16*
X393827000Y-148907500D03*
D17*
X398907000Y-148907500D03*
D16*
X403987000Y-148907500D03*
D17*
X410845000Y-140652500D03*
D18*
X410845000Y-155892500D03*
%TD*%
D16*
%TO.C,SW_KP1*%
X384302000Y-129857500D03*
D17*
X389382000Y-129857500D03*
D16*
X394462000Y-129857500D03*
%TD*%
%TO.C,SW_KP2*%
X403352000Y-129857500D03*
D17*
X408432000Y-129857500D03*
D16*
X413512000Y-129857500D03*
%TD*%
%TO.C,SW_KP3*%
X422402000Y-129857500D03*
D17*
X427482000Y-129857500D03*
D16*
X432562000Y-129857500D03*
%TD*%
%TO.C,SW_KP4*%
X384302000Y-110807500D03*
D17*
X389382000Y-110807500D03*
D16*
X394462000Y-110807500D03*
%TD*%
%TO.C,SW_KP5*%
X403352000Y-110807500D03*
D17*
X408432000Y-110807500D03*
D16*
X413512000Y-110807500D03*
%TD*%
%TO.C,SW_KP6*%
X422402000Y-110807500D03*
D17*
X427482000Y-110807500D03*
D16*
X432562000Y-110807500D03*
%TD*%
%TO.C,SW_KP7*%
X384302000Y-91757500D03*
D17*
X389382000Y-91757500D03*
D16*
X394462000Y-91757500D03*
%TD*%
%TO.C,SW_KP8*%
X403352000Y-91757500D03*
D17*
X408432000Y-91757500D03*
D16*
X413512000Y-91757500D03*
%TD*%
%TO.C,SW_KP9*%
X422402000Y-91757500D03*
D17*
X427482000Y-91757500D03*
D16*
X432562000Y-91757500D03*
%TD*%
%TO.C,SW_KPASTR1*%
X441452000Y-72707500D03*
D17*
X446532000Y-72707500D03*
D16*
X451612000Y-72707500D03*
%TD*%
D17*
%TO.C,SW_KPENTER1*%
X438277000Y-151320500D03*
D18*
X453517000Y-151320500D03*
D16*
X446532000Y-144462500D03*
D17*
X446532000Y-139382500D03*
D16*
X446532000Y-134302500D03*
D17*
X438277000Y-127444500D03*
D18*
X453517000Y-127444500D03*
%TD*%
D16*
%TO.C,SW_KPEQ1*%
X403352000Y-72707500D03*
D17*
X408432000Y-72707500D03*
D16*
X413512000Y-72707500D03*
%TD*%
%TO.C,SW_KPMINUS1*%
X441452000Y-91757500D03*
D17*
X446532000Y-91757500D03*
D16*
X451612000Y-91757500D03*
%TD*%
%TO.C,SW_KPPER1*%
X422402000Y-148907500D03*
D17*
X427482000Y-148907500D03*
D16*
X432562000Y-148907500D03*
%TD*%
%TO.C,SW_KPPLUS1*%
X441452000Y-110807500D03*
D17*
X446532000Y-110807500D03*
D16*
X451612000Y-110807500D03*
%TD*%
%TO.C,SW_L1*%
X209994500Y-110807500D03*
D17*
X215074500Y-110807500D03*
D16*
X220154500Y-110807500D03*
%TD*%
%TO.C,SW_LALT1*%
X81407000Y-148907500D03*
D17*
X86487000Y-148907500D03*
D16*
X91567000Y-148907500D03*
%TD*%
%TO.C,SW_LBRAC1*%
X243332000Y-91757500D03*
D17*
X248412000Y-91757500D03*
D16*
X253492000Y-91757500D03*
%TD*%
%TO.C,SW_LCTR1*%
X29019500Y-148907500D03*
D17*
X34099500Y-148907500D03*
D16*
X39179500Y-148907500D03*
%TD*%
%TO.C,SW_LEFT1*%
X318579500Y-148907500D03*
D17*
X323659500Y-148907500D03*
D16*
X328739500Y-148907500D03*
%TD*%
%TO.C,SW_LMOD1*%
X55213250Y-148907500D03*
D17*
X60293250Y-148907500D03*
D16*
X65373250Y-148907500D03*
%TD*%
D18*
%TO.C,SW_LSH1*%
X29305250Y-122872500D03*
D17*
X29305250Y-138112500D03*
D16*
X36163250Y-129857500D03*
D17*
X41243250Y-129857500D03*
D16*
X46323250Y-129857500D03*
D18*
X53181250Y-122872500D03*
D17*
X53181250Y-138112500D03*
%TD*%
D16*
%TO.C,SW_M1*%
X181419500Y-129857500D03*
D17*
X186499500Y-129857500D03*
D16*
X191579500Y-129857500D03*
%TD*%
%TO.C,SW_MINUS1*%
X233807000Y-72707500D03*
D17*
X238887000Y-72707500D03*
D16*
X243967000Y-72707500D03*
%TD*%
%TO.C,SW_N1*%
X162369500Y-129857500D03*
D17*
X167449500Y-129857500D03*
D16*
X172529500Y-129857500D03*
%TD*%
%TO.C,SW_O1*%
X205232000Y-91757500D03*
D17*
X210312000Y-91757500D03*
D16*
X215392000Y-91757500D03*
%TD*%
%TO.C,SW_P1*%
X224282000Y-91757500D03*
D17*
X229362000Y-91757500D03*
D16*
X234442000Y-91757500D03*
%TD*%
%TO.C,SW_PAUSE1*%
X361759500Y-39687500D03*
D17*
X361759500Y-34607500D03*
D16*
X361759500Y-29527500D03*
%TD*%
%TO.C,SW_PERIOD1*%
X219519500Y-129857500D03*
D17*
X224599500Y-129857500D03*
D16*
X229679500Y-129857500D03*
%TD*%
%TO.C,SW_PGDN1*%
X356679500Y-91757500D03*
D17*
X361759500Y-91757500D03*
D16*
X366839500Y-91757500D03*
%TD*%
%TO.C,SW_PGUP1*%
X356679500Y-72707500D03*
D17*
X361759500Y-72707500D03*
D16*
X366839500Y-72707500D03*
%TD*%
%TO.C,SW_POW1*%
X446532000Y-39687500D03*
D17*
X446532000Y-34607500D03*
D16*
X446532000Y-29527500D03*
%TD*%
%TO.C,SW_PRSC1*%
X323659500Y-39687500D03*
D17*
X323659500Y-34607500D03*
D16*
X323659500Y-29527500D03*
%TD*%
%TO.C,SW_Q1*%
X52832000Y-91757500D03*
D17*
X57912000Y-91757500D03*
D16*
X62992000Y-91757500D03*
%TD*%
%TO.C,SW_R1*%
X109982000Y-91757500D03*
D17*
X115062000Y-91757500D03*
D16*
X120142000Y-91757500D03*
%TD*%
%TO.C,SW_RALT1*%
X233807000Y-148907500D03*
D17*
X238887000Y-148907500D03*
D16*
X243967000Y-148907500D03*
%TD*%
%TO.C,SW_RBRAC1*%
X262382000Y-91757500D03*
D17*
X267462000Y-91757500D03*
D16*
X272542000Y-91757500D03*
%TD*%
%TO.C,SW_RCTR1*%
X286194500Y-148907500D03*
D17*
X291274500Y-148907500D03*
D16*
X296354500Y-148907500D03*
%TD*%
%TO.C,SW_RIGHT1*%
X356679500Y-148907500D03*
D17*
X361759500Y-148907500D03*
D16*
X366839500Y-148907500D03*
%TD*%
%TO.C,SW_RMOD1*%
X260000750Y-148907500D03*
D17*
X265080750Y-148907500D03*
D16*
X270160750Y-148907500D03*
%TD*%
D18*
%TO.C,SW_RSH1*%
X267430250Y-122872500D03*
D17*
X267430250Y-138112500D03*
D16*
X274288250Y-129857500D03*
D17*
X279368250Y-129857500D03*
D16*
X284448250Y-129857500D03*
D18*
X291306250Y-122872500D03*
D17*
X291306250Y-138112500D03*
%TD*%
D16*
%TO.C,SW_S1*%
X76644500Y-110807500D03*
D17*
X81724500Y-110807500D03*
D16*
X86804500Y-110807500D03*
%TD*%
%TO.C,SW_SCLK1*%
X342709500Y-39687500D03*
D17*
X342709500Y-34607500D03*
D16*
X342709500Y-29527500D03*
%TD*%
%TO.C,SW_SLASH1*%
X238569500Y-129857500D03*
D17*
X243649500Y-129857500D03*
D16*
X248729500Y-129857500D03*
%TD*%
D17*
%TO.C,SW_SPACE1*%
X112687100Y-140652500D03*
D18*
X112687100Y-155892500D03*
D16*
X157607000Y-148907500D03*
D17*
X162687000Y-148907500D03*
D16*
X167767000Y-148907500D03*
D17*
X212686900Y-140652500D03*
D18*
X212686900Y-155892500D03*
%TD*%
D16*
%TO.C,SW_T1*%
X129032000Y-91757500D03*
D17*
X134112000Y-91757500D03*
D16*
X139192000Y-91757500D03*
%TD*%
%TO.C,SW_TAB1*%
X29019500Y-91757500D03*
D17*
X34099500Y-91757500D03*
D16*
X39179500Y-91757500D03*
%TD*%
%TO.C,SW_TICK1*%
X24257000Y-72707500D03*
D17*
X29337000Y-72707500D03*
D16*
X34417000Y-72707500D03*
%TD*%
%TO.C,SW_U1*%
X167132000Y-91757500D03*
D17*
X172212000Y-91757500D03*
D16*
X177292000Y-91757500D03*
%TD*%
%TO.C,SW_UP1*%
X337629500Y-129857500D03*
D17*
X342709500Y-129857500D03*
D16*
X347789500Y-129857500D03*
%TD*%
%TO.C,SW_V1*%
X124269500Y-129857500D03*
D17*
X129349500Y-129857500D03*
D16*
X134429500Y-129857500D03*
%TD*%
%TO.C,SW_W1*%
X71882000Y-91757500D03*
D17*
X76962000Y-91757500D03*
D16*
X82042000Y-91757500D03*
%TD*%
%TO.C,SW_X1*%
X86169500Y-129857500D03*
D17*
X91249500Y-129857500D03*
D16*
X96329500Y-129857500D03*
%TD*%
%TO.C,SW_Y1*%
X148082000Y-91757500D03*
D17*
X153162000Y-91757500D03*
D16*
X158242000Y-91757500D03*
%TD*%
%TO.C,SW_Z1*%
X67119500Y-129857500D03*
D17*
X72199500Y-129857500D03*
D16*
X77279500Y-129857500D03*
%TD*%
D15*
%TO.C,H1*%
X23800000Y-52734000D03*
%TD*%
D16*
%TO.C,SW_4*%
X100457000Y-72707500D03*
D17*
X105537000Y-72707500D03*
D16*
X110617000Y-72707500D03*
%TD*%
%TO.C,SW_5*%
X119507000Y-72707500D03*
D17*
X124587000Y-72707500D03*
D16*
X129667000Y-72707500D03*
%TD*%
%TO.C,SW_NUMLK1*%
X384302000Y-72707500D03*
D17*
X389382000Y-72707500D03*
D16*
X394462000Y-72707500D03*
%TD*%
%TO.C,SW_KP0X1*%
X413512000Y-148907500D03*
D17*
X408432000Y-148907500D03*
D16*
X403352000Y-148907500D03*
%TD*%
%TO.C,SW_KPENTERALT1*%
X451612000Y-148907500D03*
D17*
X446532000Y-148907500D03*
D16*
X441452000Y-148907500D03*
%TD*%
%TO.C,SW_KPSLASH1*%
X422402000Y-72707500D03*
D17*
X427482000Y-72707500D03*
D16*
X432562000Y-72707500D03*
%TD*%
%TO.C,SW_KP0ALT1*%
X384302000Y-148907500D03*
D17*
X389382000Y-148907500D03*
D16*
X394462000Y-148907500D03*
%TD*%
%TO.C,SW_KPENTERX1*%
X441452000Y-129857500D03*
D17*
X446532000Y-129857500D03*
D16*
X451612000Y-129857500D03*
%TD*%
%LPD*%
M02*
