%TF.GenerationSoftware,KiCad,Pcbnew,(6.99.0-3429-gce3fe46751)*%
%TF.CreationDate,2022-10-04T12:52:18+02:00*%
%TF.ProjectId,aek,61656b2e-6b69-4636-9164-5f7063625858,rev?*%
%TF.SameCoordinates,Original*%
%TF.FileFunction,Paste,Bot*%
%TF.FilePolarity,Positive*%
%FSLAX46Y46*%
G04 Gerber Fmt 4.6, Leading zero omitted, Abs format (unit mm)*
G04 Created by KiCad (PCBNEW (6.99.0-3429-gce3fe46751)) date 2022-10-04 12:52:18*
%MOMM*%
%LPD*%
G01*
G04 APERTURE LIST*
G04 Aperture macros list*
%AMRoundRect*
0 Rectangle with rounded corners*
0 $1 Rounding radius*
0 $2 $3 $4 $5 $6 $7 $8 $9 X,Y pos of 4 corners*
0 Add a 4 corners polygon primitive as box body*
4,1,4,$2,$3,$4,$5,$6,$7,$8,$9,$2,$3,0*
0 Add four circle primitives for the rounded corners*
1,1,$1+$1,$2,$3*
1,1,$1+$1,$4,$5*
1,1,$1+$1,$6,$7*
1,1,$1+$1,$8,$9*
0 Add four rect primitives between the rounded corners*
20,1,$1+$1,$2,$3,$4,$5,0*
20,1,$1+$1,$4,$5,$6,$7,0*
20,1,$1+$1,$6,$7,$8,$9,0*
20,1,$1+$1,$8,$9,$2,$3,0*%
G04 Aperture macros list end*
%ADD10R,1.200000X0.900000*%
%ADD11RoundRect,0.250000X0.250000X0.475000X-0.250000X0.475000X-0.250000X-0.475000X0.250000X-0.475000X0*%
%ADD12RoundRect,0.250000X-0.450000X0.262500X-0.450000X-0.262500X0.450000X-0.262500X0.450000X0.262500X0*%
%ADD13R,1.800000X1.100000*%
%ADD14RoundRect,0.250000X-0.475000X0.250000X-0.475000X-0.250000X0.475000X-0.250000X0.475000X0.250000X0*%
%ADD15RoundRect,0.250000X-0.250000X-0.475000X0.250000X-0.475000X0.250000X0.475000X-0.250000X0.475000X0*%
%ADD16RoundRect,0.250000X0.475000X-0.250000X0.475000X0.250000X-0.475000X0.250000X-0.475000X-0.250000X0*%
%ADD17RoundRect,0.150000X-0.150000X-0.625000X0.150000X-0.625000X0.150000X0.625000X-0.150000X0.625000X0*%
%ADD18RoundRect,0.250000X-0.350000X-0.650000X0.350000X-0.650000X0.350000X0.650000X-0.350000X0.650000X0*%
%ADD19RoundRect,0.250000X0.450000X-0.262500X0.450000X0.262500X-0.450000X0.262500X-0.450000X-0.262500X0*%
%ADD20RoundRect,0.250000X0.262500X0.450000X-0.262500X0.450000X-0.262500X-0.450000X0.262500X-0.450000X0*%
%ADD21RoundRect,0.250000X0.275000X0.275000X-0.275000X0.275000X-0.275000X-0.275000X0.275000X-0.275000X0*%
%ADD22R,1.500000X0.550000*%
%ADD23RoundRect,0.062500X0.475000X0.062500X-0.475000X0.062500X-0.475000X-0.062500X0.475000X-0.062500X0*%
%ADD24R,0.550000X1.500000*%
%ADD25RoundRect,0.062500X0.062500X0.475000X-0.062500X0.475000X-0.062500X-0.475000X0.062500X-0.475000X0*%
%ADD26R,1.400000X1.200000*%
%ADD27RoundRect,0.250000X-0.262500X-0.450000X0.262500X-0.450000X0.262500X0.450000X-0.262500X0.450000X0*%
%ADD28R,2.200000X2.200000*%
G04 APERTURE END LIST*
D10*
%TO.C,D16*%
X100774499Y-131507499D03*
X100774499Y-128207499D03*
%TD*%
D11*
%TO.C,C8*%
X398968000Y-27686000D03*
X397068000Y-27686000D03*
%TD*%
%TO.C,C9*%
X385760000Y-22352000D03*
X383860000Y-22352000D03*
%TD*%
%TO.C,C10*%
X423098000Y-23876000D03*
X421198000Y-23876000D03*
%TD*%
D12*
%TO.C,R1*%
X426466000Y-31599500D03*
X426466000Y-33424500D03*
%TD*%
D13*
%TO.C,SW1*%
X425599999Y-59579999D03*
X431799999Y-55879999D03*
X425599999Y-55879999D03*
X431799999Y-59579999D03*
%TD*%
D11*
%TO.C,C1*%
X434086000Y-34036000D03*
X432186000Y-34036000D03*
%TD*%
D14*
%TO.C,C2*%
X414686750Y-46548000D03*
X414686750Y-48448000D03*
%TD*%
%TO.C,C5*%
X417068000Y-46548000D03*
X417068000Y-48448000D03*
%TD*%
D15*
%TO.C,C6*%
X435930000Y-42418000D03*
X437830000Y-42418000D03*
%TD*%
D16*
%TO.C,C7*%
X433477000Y-52884500D03*
X433477000Y-50984500D03*
%TD*%
D10*
%TO.C,D1*%
X38861999Y-36257499D03*
X38861999Y-32957499D03*
%TD*%
%TO.C,D2*%
X38861999Y-74357499D03*
X38861999Y-71057499D03*
%TD*%
%TO.C,D3*%
X43624499Y-93407499D03*
X43624499Y-90107499D03*
%TD*%
%TO.C,D4*%
X46005749Y-112457499D03*
X46005749Y-109157499D03*
%TD*%
%TO.C,D5*%
X50768249Y-131507499D03*
X50768249Y-128207499D03*
%TD*%
%TO.C,D6*%
X43624499Y-150557499D03*
X43624499Y-147257499D03*
%TD*%
%TO.C,D7*%
X69818249Y-150557499D03*
X69818249Y-147257499D03*
%TD*%
%TO.C,D8*%
X81724499Y-131507499D03*
X81724499Y-128207499D03*
%TD*%
%TO.C,D9*%
X72199499Y-112457499D03*
X72199499Y-109157499D03*
%TD*%
%TO.C,D10*%
X67436999Y-93407499D03*
X67436999Y-90107499D03*
%TD*%
%TO.C,D11*%
X57911999Y-74357499D03*
X57911999Y-71057499D03*
%TD*%
%TO.C,D12*%
X76961999Y-36257499D03*
X76961999Y-32957499D03*
%TD*%
%TO.C,D13*%
X76961999Y-74357499D03*
X76961999Y-71057499D03*
%TD*%
%TO.C,D14*%
X86486999Y-93407499D03*
X86486999Y-90107499D03*
%TD*%
%TO.C,D15*%
X91249499Y-112457499D03*
X91249499Y-109157499D03*
%TD*%
%TO.C,D17*%
X96011999Y-150557499D03*
X96011999Y-147257499D03*
%TD*%
%TO.C,D18*%
X119824499Y-131507499D03*
X119824499Y-128207499D03*
%TD*%
%TO.C,D19*%
X110299499Y-112457499D03*
X110299499Y-109157499D03*
%TD*%
%TO.C,D20*%
X105536999Y-95057499D03*
X105536999Y-91757499D03*
%TD*%
%TO.C,D21*%
X96011999Y-74357499D03*
X96011999Y-71057499D03*
%TD*%
%TO.C,D22*%
X96011999Y-36257499D03*
X96011999Y-32957499D03*
%TD*%
%TO.C,D23*%
X115061999Y-36257499D03*
X115061999Y-32957499D03*
%TD*%
%TO.C,D24*%
X115061999Y-74357499D03*
X115061999Y-71057499D03*
%TD*%
%TO.C,D25*%
X124586999Y-93407499D03*
X124586999Y-90107499D03*
%TD*%
%TO.C,D26*%
X129349499Y-112457499D03*
X129349499Y-109157499D03*
%TD*%
%TO.C,D27*%
X138874499Y-131507499D03*
X138874499Y-128207499D03*
%TD*%
%TO.C,D28*%
X172211999Y-150557499D03*
X172211999Y-147257499D03*
%TD*%
%TO.C,D29*%
X157924499Y-131507499D03*
X157924499Y-128207499D03*
%TD*%
%TO.C,D30*%
X148399499Y-112457499D03*
X148399499Y-109157499D03*
%TD*%
%TO.C,D31*%
X143636999Y-93407499D03*
X143636999Y-90107499D03*
%TD*%
%TO.C,D32*%
X134111999Y-74357499D03*
X134111999Y-71057499D03*
%TD*%
%TO.C,D33*%
X134111999Y-36257499D03*
X134111999Y-32957499D03*
%TD*%
%TO.C,D34*%
X162686999Y-36257499D03*
X162686999Y-32957499D03*
%TD*%
%TO.C,D35*%
X153161999Y-74357499D03*
X153161999Y-71057499D03*
%TD*%
%TO.C,D36*%
X162686999Y-93407499D03*
X162686999Y-90107499D03*
%TD*%
%TO.C,D37*%
X167449499Y-112457499D03*
X167449499Y-109157499D03*
%TD*%
%TO.C,D38*%
X176974499Y-131507499D03*
X176974499Y-128207499D03*
%TD*%
%TO.C,D39*%
X196024499Y-131507499D03*
X196024499Y-128207499D03*
%TD*%
%TO.C,D40*%
X186499499Y-112457499D03*
X186499499Y-109157499D03*
%TD*%
%TO.C,D41*%
X181736999Y-93407499D03*
X181736999Y-90107499D03*
%TD*%
%TO.C,D42*%
X172211999Y-74357499D03*
X172211999Y-71057499D03*
%TD*%
%TO.C,D44*%
X181736999Y-36257499D03*
X181736999Y-32957499D03*
%TD*%
%TO.C,D45*%
X200786999Y-36257499D03*
X200786999Y-32957499D03*
%TD*%
%TO.C,D46*%
X191261999Y-74357499D03*
X191261999Y-71057499D03*
%TD*%
%TO.C,D47*%
X200786999Y-93407499D03*
X200786999Y-90107499D03*
%TD*%
%TO.C,D48*%
X205549499Y-112457499D03*
X205549499Y-109157499D03*
%TD*%
%TO.C,D49*%
X215074499Y-131507499D03*
X215074499Y-128207499D03*
%TD*%
%TO.C,D50*%
X248411999Y-150557499D03*
X248411999Y-147257499D03*
%TD*%
%TO.C,D51*%
X234124499Y-131507499D03*
X234124499Y-128207499D03*
%TD*%
%TO.C,D52*%
X224599499Y-112457499D03*
X224599499Y-109157499D03*
%TD*%
%TO.C,D53*%
X219836999Y-93407499D03*
X219836999Y-90107499D03*
%TD*%
%TO.C,D54*%
X210311999Y-74357499D03*
X210311999Y-71057499D03*
%TD*%
%TO.C,D55*%
X219836999Y-36257499D03*
X219836999Y-32957499D03*
%TD*%
%TO.C,D56*%
X248411999Y-36257499D03*
X248411999Y-32957499D03*
%TD*%
%TO.C,D57*%
X229361999Y-74357499D03*
X229361999Y-71057499D03*
%TD*%
%TO.C,D58*%
X238886999Y-93407499D03*
X238886999Y-90107499D03*
%TD*%
%TO.C,D59*%
X243649499Y-112457499D03*
X243649499Y-109157499D03*
%TD*%
%TO.C,D60*%
X253174499Y-131507499D03*
X253174499Y-128207499D03*
%TD*%
%TO.C,D61*%
X274605749Y-150557499D03*
X274605749Y-147257499D03*
%TD*%
%TO.C,D62*%
X288893249Y-129857499D03*
X288893249Y-126557499D03*
%TD*%
%TO.C,D63*%
X262699499Y-112457499D03*
X262699499Y-109157499D03*
%TD*%
%TO.C,D64*%
X257936999Y-93407499D03*
X257936999Y-90107499D03*
%TD*%
%TO.C,D65*%
X248411999Y-74357499D03*
X248411999Y-71057499D03*
%TD*%
%TO.C,D66*%
X267461999Y-36257499D03*
X267461999Y-32957499D03*
%TD*%
%TO.C,D67*%
X286511999Y-36257499D03*
X286511999Y-32957499D03*
%TD*%
%TO.C,D68*%
X267461999Y-74357499D03*
X267461999Y-71057499D03*
%TD*%
%TO.C,D69*%
X276986999Y-93407499D03*
X276986999Y-90107499D03*
%TD*%
%TO.C,D70*%
X300799499Y-93407499D03*
X300799499Y-90107499D03*
%TD*%
%TO.C,D71*%
X293655749Y-112457499D03*
X293655749Y-109157499D03*
%TD*%
%TO.C,D72*%
X300799499Y-150557499D03*
X300799499Y-147257499D03*
%TD*%
%TO.C,D73*%
X333184499Y-150557499D03*
X333184499Y-147257499D03*
%TD*%
%TO.C,D74*%
X333184499Y-93407499D03*
X333184499Y-90107499D03*
%TD*%
%TO.C,D75*%
X333184499Y-74357499D03*
X333184499Y-71057499D03*
%TD*%
%TO.C,D76*%
X296036999Y-74357499D03*
X296036999Y-71057499D03*
%TD*%
%TO.C,D77*%
X305561999Y-36257499D03*
X305561999Y-32957499D03*
%TD*%
%TO.C,D78*%
X333184499Y-36257499D03*
X333184499Y-32957499D03*
%TD*%
%TO.C,D79*%
X352234499Y-74357499D03*
X352234499Y-71057499D03*
%TD*%
%TO.C,D80*%
X352234499Y-93407499D03*
X352234499Y-90107499D03*
%TD*%
%TO.C,D81*%
X352234499Y-131507499D03*
X352234499Y-128207499D03*
%TD*%
%TO.C,D82*%
X352234499Y-150557499D03*
X352234499Y-147257499D03*
%TD*%
%TO.C,D83*%
X371284499Y-150557499D03*
X371284499Y-147257499D03*
%TD*%
%TO.C,D84*%
X395477999Y-137415999D03*
X395477999Y-140715999D03*
%TD*%
%TO.C,D85*%
X398906999Y-131507499D03*
X398906999Y-128207499D03*
%TD*%
%TO.C,D86*%
X371284499Y-93407499D03*
X371284499Y-90107499D03*
%TD*%
%TO.C,D87*%
X371284499Y-74357499D03*
X371284499Y-71057499D03*
%TD*%
%TO.C,D88*%
X352234499Y-36257499D03*
X352234499Y-32957499D03*
%TD*%
%TO.C,D89*%
X371284499Y-36257499D03*
X371284499Y-32957499D03*
%TD*%
%TO.C,D90*%
X398906999Y-74357499D03*
X398906999Y-71057499D03*
%TD*%
%TO.C,D91*%
X398906999Y-93407499D03*
X398906999Y-90107499D03*
%TD*%
%TO.C,D92*%
X398906999Y-112457499D03*
X398906999Y-109157499D03*
%TD*%
%TO.C,D93*%
X417956999Y-131507499D03*
X417956999Y-128207499D03*
%TD*%
%TO.C,D94*%
X437895999Y-146809999D03*
X437895999Y-143509999D03*
%TD*%
%TO.C,D95*%
X436879999Y-135635999D03*
X436879999Y-132335999D03*
%TD*%
%TO.C,D96*%
X437006999Y-112457499D03*
X437006999Y-109157499D03*
%TD*%
%TO.C,D97*%
X417956999Y-112457499D03*
X417956999Y-109157499D03*
%TD*%
%TO.C,D99*%
X417956999Y-74357499D03*
X417956999Y-71057499D03*
%TD*%
%TO.C,D100*%
X441959999Y-48005999D03*
X441959999Y-44705999D03*
%TD*%
%TO.C,D101*%
X437006999Y-74357499D03*
X437006999Y-71057499D03*
%TD*%
%TO.C,D102*%
X437006999Y-93407499D03*
X437006999Y-90107499D03*
%TD*%
%TO.C,D103*%
X449325999Y-99313999D03*
X449325999Y-102613999D03*
%TD*%
%TO.C,D104*%
X441831999Y-122299999D03*
X441831999Y-118999999D03*
%TD*%
%TO.C,D109*%
X446531999Y-83882499D03*
X446531999Y-80582499D03*
%TD*%
%TO.C,D110*%
X450595999Y-64767999D03*
X450595999Y-61467999D03*
%TD*%
D17*
%TO.C,J1*%
X446975750Y-20550750D03*
X447975750Y-20550750D03*
X448975750Y-20550750D03*
X449975750Y-20550750D03*
D18*
X445675750Y-16675750D03*
X451275750Y-16675750D03*
%TD*%
D19*
%TO.C,R3*%
X435610000Y-55927000D03*
X435610000Y-54102000D03*
%TD*%
D20*
%TO.C,R4*%
X418084000Y-35814000D03*
X416259000Y-35814000D03*
%TD*%
D21*
%TO.C,U1*%
X427802000Y-44203250D03*
X427802000Y-42903250D03*
X427802000Y-41603250D03*
X427802000Y-40303250D03*
X426502000Y-44203250D03*
X426502000Y-42903250D03*
X426502000Y-41603250D03*
X426502000Y-40303250D03*
X425202000Y-44203250D03*
X425202000Y-42903250D03*
X425202000Y-41603250D03*
X425202000Y-40303250D03*
X423902000Y-44203250D03*
X423902000Y-42903250D03*
X423902000Y-41603250D03*
X423902000Y-40303250D03*
D22*
X431551999Y-38253249D03*
D23*
X429189500Y-39753250D03*
D22*
X431551999Y-39053249D03*
D23*
X429189500Y-40253250D03*
D22*
X431551999Y-39853249D03*
D23*
X429189500Y-40753250D03*
D22*
X431551999Y-40653249D03*
D23*
X429189500Y-41253250D03*
D22*
X431551999Y-41453249D03*
D23*
X429189500Y-41753250D03*
D22*
X431551999Y-42253249D03*
D23*
X429189500Y-42253250D03*
D22*
X431551999Y-43053249D03*
D23*
X429189500Y-42753250D03*
D22*
X431551999Y-43853249D03*
D23*
X429189500Y-43253250D03*
D22*
X431551999Y-44653249D03*
D23*
X429189500Y-43753250D03*
D22*
X431551999Y-45453249D03*
D23*
X429189500Y-44253250D03*
D22*
X431551999Y-46253249D03*
D23*
X429189500Y-44753250D03*
D24*
X429851999Y-47953249D03*
D25*
X428352000Y-45590750D03*
D24*
X429051999Y-47953249D03*
D25*
X427852000Y-45590750D03*
D24*
X428251999Y-47953249D03*
D25*
X427352000Y-45590750D03*
D24*
X427451999Y-47953249D03*
D25*
X426852000Y-45590750D03*
D24*
X426651999Y-47953249D03*
D25*
X426352000Y-45590750D03*
D24*
X425851999Y-47953249D03*
D25*
X425852000Y-45590750D03*
X425352000Y-45590750D03*
D24*
X425051999Y-47953249D03*
D25*
X424852000Y-45590750D03*
D24*
X424251999Y-47953249D03*
D25*
X424352000Y-45590750D03*
D24*
X423451999Y-47953249D03*
D25*
X423852000Y-45590750D03*
D24*
X422651999Y-47953249D03*
D25*
X423352000Y-45590750D03*
D24*
X421851999Y-47953249D03*
D23*
X422514500Y-44753250D03*
D22*
X420151999Y-46253249D03*
D23*
X422514500Y-44253250D03*
D22*
X420151999Y-45453249D03*
D23*
X422514500Y-43753250D03*
D22*
X420151999Y-44653249D03*
D23*
X422514500Y-43253250D03*
D22*
X420151999Y-43853249D03*
D23*
X422514500Y-42753250D03*
D22*
X420151999Y-43053249D03*
D23*
X422514500Y-42253250D03*
D22*
X420151999Y-42253249D03*
D23*
X422514500Y-41753250D03*
D22*
X420151999Y-41453249D03*
D23*
X422514500Y-41253250D03*
D22*
X420151999Y-40653249D03*
D23*
X422514500Y-40753250D03*
D22*
X420151999Y-39853249D03*
D23*
X422514500Y-40253250D03*
D22*
X420151999Y-39053249D03*
D23*
X422514500Y-39753250D03*
D22*
X420151999Y-38253249D03*
D25*
X423352000Y-38915750D03*
D24*
X421851999Y-36553249D03*
D25*
X423852000Y-38915750D03*
D24*
X422651999Y-36553249D03*
D25*
X424352000Y-38915750D03*
D24*
X423451999Y-36553249D03*
D25*
X424852000Y-38915750D03*
D24*
X424251999Y-36553249D03*
D25*
X425352000Y-38915750D03*
D24*
X425051999Y-36553249D03*
D25*
X425852000Y-38915750D03*
D24*
X425851999Y-36553249D03*
X426651999Y-36553249D03*
D25*
X426352000Y-38915750D03*
D24*
X427451999Y-36553249D03*
D25*
X426852000Y-38915750D03*
D24*
X428251999Y-36553249D03*
D25*
X427352000Y-38915750D03*
D24*
X429051999Y-36553249D03*
D25*
X427852000Y-38915750D03*
D24*
X429851999Y-36553249D03*
D25*
X428352000Y-38915750D03*
%TD*%
D26*
%TO.C,Y1*%
X425239499Y-50928249D03*
X427439499Y-50928249D03*
X427439499Y-52628249D03*
X425239499Y-52628249D03*
%TD*%
D14*
%TO.C,C3*%
X422910000Y-53340000D03*
X422910000Y-55240000D03*
%TD*%
D16*
%TO.C,C4*%
X430614500Y-52884500D03*
X430614500Y-50984500D03*
%TD*%
D10*
%TO.C,D98*%
X417956999Y-93407499D03*
X417956999Y-90107499D03*
%TD*%
%TO.C,D105*%
X449071999Y-118617999D03*
X449071999Y-121917999D03*
%TD*%
D15*
%TO.C,C11*%
X416560000Y-22352000D03*
X418460000Y-22352000D03*
%TD*%
D27*
%TO.C,R5*%
X441452000Y-24892000D03*
X443277000Y-24892000D03*
%TD*%
%TO.C,R2*%
X441405000Y-22860000D03*
X443230000Y-22860000D03*
%TD*%
D10*
%TO.C,D43*%
X403351999Y-136145999D03*
X403351999Y-139445999D03*
%TD*%
D27*
%TO.C,R6*%
X412599500Y-22352000D03*
X414424500Y-22352000D03*
%TD*%
D28*
%TO.C,BUZ1*%
X426215999Y-20065999D03*
X439415999Y-20065999D03*
%TD*%
M02*
